<?xml version="1.0" encoding="UTF-8"?>
<svg id="Layer_1" data-name="Layer 1" xmlns="http://www.w3.org/2000/svg" viewBox="0 0 7.2 7.2">
  <defs>
    <style>
      .cls-1 {
        fill: #335095;
        fill-rule: evenodd;
        stroke-width: 0px;
      }
    </style>
  </defs>
  <path class="cls-1" d="m3.6,0C1.6,0,0,1.6,0,3.7c0,1.6,1,3,2.5,3.5.2,0,.2-.1.2-.2v-.7c-1,.2-1.2-.4-1.2-.4-.2-.4-.4-.5-.4-.5-.3-.2,0-.2,0-.2.4,0,.6.4.6.4.3.6.8.4,1,.3,0-.2.1-.4.2-.5-.8-.2-1.6-.5-1.6-1.9,0-.4.1-.7.4-1,0-.1-.2-.5,0-1,0,0,.3-.1,1,.4.3-.1.6-.1.9-.1s.6,0,.9.1c.7-.5,1-.4,1-.4.2.5.1.9,0,1,.2.3.4.6.4,1,0,1.4-.8,1.7-1.6,1.8.1.1.2.4.2.7v1c0,.1.1.2.2.2,1.4-.5,2.5-1.9,2.5-3.5,0-2.1-1.6-3.7-3.6-3.7Z"/>
</svg>