<?xml version="1.0" encoding="UTF-8"?>
<svg id="Layer_1" data-name="Layer 1" xmlns="http://www.w3.org/2000/svg" viewBox="0 0 7.2 7.2">
  <defs>
    <style>
      .cls-1 {
        fill: #335095;
        stroke-width: 0px;
      }
    </style>
  </defs>
  <path class="cls-1" d="m6.7,0H.5C.2,0,0,.2,0,.5v6.2c0,.3.2.5.5.5h6.1c.4,0,.6-.2.6-.5V.5c0-.3-.2-.5-.5-.5ZM2.43,6.15h-1.1v-3.4h1.1v3.4Zm-.6-3.9c-.3,0-.6-.3-.6-.6s.3-.6.6-.6.6.3.6.6-.3.6-.6.6Zm4.5,3.9h-1v-1.6c0-.4,0-.9-.6-.9-.5,0-.6.4-.6.8v1.7h-1.1v-3.4h1v.5c.1-.3.5-.6,1-.6,1.1,0,1.3.7,1.3,1.6v1.9Z"/>
</svg>