<?xml version="1.0" encoding="utf-8"?>
<!-- Generator: Adobe Illustrator 28.0.0, SVG Export Plug-In . SVG Version: 6.00 Build 0)  -->
<svg version="1.1" id="Layer_1" xmlns="http://www.w3.org/2000/svg" xmlns:xlink="http://www.w3.org/1999/xlink" x="0px" y="0px"
	 viewBox="0 0 7.2 7.2" style="enable-background:new 0 0 7.2 7.2;" xml:space="preserve">
<style type="text/css">
	.st0{fill:#231F20;}
	.st1{fill:#FFFFFF;}
</style>
<path class="st0" d="M6.7,0H0.5C0.2,0,0,0.2,0,0.5v6.2C0,7,0.2,7.2,0.5,7.2h6.1C7,7.2,7.2,7,7.2,6.7V0.5C7.2,0.2,7,0,6.7,0z"/>
<path class="st1" d="M1.1,2.7h1.1v3.4H1.1V2.7z M1.6,1c0.3,0,0.6,0.3,0.6,0.6S1.9,2.2,1.6,2.2C1.3,2.2,1,1.9,1,1.6
	C1,1.3,1.3,1,1.6,1C1.6,1,1.6,1,1.6,1 M2.8,2.7h1v0.5h0c0.1-0.3,0.5-0.6,1-0.6c1.1,0,1.3,0.7,1.3,1.6v1.9H5.1V4.5
	c0-0.4,0-0.9-0.6-0.9C4,3.6,3.9,4,3.9,4.4v1.7H2.8L2.8,2.7L2.8,2.7z"/>
</svg>
