<?xml version="1.0" encoding="utf-8"?>
<!-- Generator: Adobe Illustrator 28.0.0, SVG Export Plug-In . SVG Version: 6.00 Build 0)  -->
<svg version="1.1" id="Layer_1" xmlns="http://www.w3.org/2000/svg" xmlns:xlink="http://www.w3.org/1999/xlink" x="0px" y="0px"
	 viewBox="0 0 7.2 7.2" style="enable-background:new 0 0 7.2 7.2;" xml:space="preserve">
<style type="text/css">
	.st0{fill:#FFFFFF;}
</style>
<path class="st0" d="M6.7,0H0.5C0.2,0,0,0.2,0,0.5v6.2C0,7,0.2,7.2,0.5,7.2h6.1C7,7.2,7.2,7,7.2,6.7V0.5C7.2,0.2,7,0,6.7,0z
	 M2.2,6.2H1.2V2.7h1.1V6.2z M1.7,2.2C1.3,2.2,1,1.9,1,1.7S1.3,1,1.7,1C2,1,2.2,1.4,2.2,1.7S2,2.2,1.7,2.2z M6.2,6.2h-1V4.5
	c0-0.4,0-0.9-0.6-0.9C4,3.7,4,4,4,4.4v1.7H2.8V2.7h1v0.5c0.1-0.3,0.5-0.6,1-0.6c1.1,0,1.3,0.7,1.3,1.6V6.2z"/>
</svg>
