<?xml version="1.0" encoding="utf-8"?>
<!-- Generator: Adobe Illustrator 28.0.0, SVG Export Plug-In . SVG Version: 6.00 Build 0)  -->
<svg version="1.1" id="Layer_1" xmlns="http://www.w3.org/2000/svg" xmlns:xlink="http://www.w3.org/1999/xlink" x="0px" y="0px"
	 viewBox="0 0 7.2 7.2" style="enable-background:new 0 0 7.2 7.2;" xml:space="preserve">
<style type="text/css">
	.st0{fill-rule:evenodd;clip-rule:evenodd;fill:#24292F;}
</style>
<path class="st0" d="M3.6,0C1.6,0,0,1.6,0,3.7c0,1.6,1,3,2.5,3.5c0.2,0,0.2-0.1,0.2-0.2c0-0.1,0-0.4,0-0.7c-1,0.2-1.2-0.4-1.2-0.4
	C1.3,5.5,1.1,5.4,1.1,5.4c-0.3-0.2,0-0.2,0-0.2c0.4,0,0.6,0.4,0.6,0.4c0.3,0.6,0.8,0.4,1,0.3c0-0.2,0.1-0.4,0.2-0.5
	C2.1,5.2,1.3,4.9,1.3,3.5c0-0.4,0.1-0.7,0.4-1c0-0.1-0.2-0.5,0-1c0,0,0.3-0.1,1,0.4C3,1.8,3.3,1.8,3.6,1.8c0.3,0,0.6,0,0.9,0.1
	c0.7-0.5,1-0.4,1-0.4c0.2,0.5,0.1,0.9,0,1c0.2,0.3,0.4,0.6,0.4,1c0,1.4-0.8,1.7-1.6,1.8C4.4,5.4,4.5,5.7,4.5,6c0,0.5,0,0.9,0,1
	c0,0.1,0.1,0.2,0.2,0.2c1.4-0.5,2.5-1.9,2.5-3.5C7.2,1.6,5.6,0,3.6,0z"/>
</svg>
